HIERARCHY
ROOT Hips
{
	OFFSET 0.000000 0.000000 0.000000
	CHANNELS 6 Xposition Yposition Zposition Zrotation Yrotation Xrotation 
	JOINT LHipJoint
	{
		OFFSET 0.000000 0.000000 0.000000
		CHANNELS 3 Zrotation Yrotation Xrotation
		JOINT LeftUpLeg
		{
			OFFSET 1.363060 -1.794630 0.839290
			CHANNELS 3 Zrotation Yrotation Xrotation
			JOINT LeftLeg
			{
				OFFSET 2.448110 -6.726130 0.000000
				CHANNELS 3 Zrotation Yrotation Xrotation
				JOINT LeftFoot
				{
					OFFSET 2.562200 -7.039590 0.000000
					CHANNELS 3 Zrotation Yrotation Xrotation
					JOINT LeftToeBase
					{
						OFFSET 0.157640 -0.433110 2.322550
						CHANNELS 3 Zrotation Yrotation Xrotation
						End Site
						{
							OFFSET 0.000000 0.000000 0.000000
						}
					}
				}
			}
		}
	}
	JOINT RHipJoint
	{
		OFFSET 0.000000 0.000000 0.000000
		CHANNELS 3 Zrotation Yrotation Xrotation
		JOINT RightUpLeg
		{
			OFFSET -1.305520 -1.794630 0.839290
			CHANNELS 3 Zrotation Yrotation Xrotation
			JOINT RightLeg
			{
				OFFSET -2.542530 -6.985550 0.000000
				CHANNELS 3 Zrotation Yrotation Xrotation
				JOINT RightFoot
				{
					OFFSET -2.568260 -7.056230 0.000000
					CHANNELS 3 Zrotation Yrotation Xrotation
					JOINT RightToeBase
					{
						OFFSET -0.164730 -0.452590 2.363150
						CHANNELS 3 Zrotation Yrotation Xrotation
						End Site
						{
							OFFSET 0.000000 0.000000 0.000000
						}
					}
				}
			}
		}
	}
	JOINT LowerBack
	{
		OFFSET 0.000000 0.000000 0.000000
		CHANNELS 3 Zrotation Yrotation Xrotation
		JOINT Spine
		{
			OFFSET 0.028270 2.035590 -0.193380
			CHANNELS 3 Zrotation Yrotation Xrotation
			JOINT Spine1
			{
				OFFSET 0.056720 2.048850 -0.042750
				CHANNELS 3 Zrotation Yrotation Xrotation
				JOINT Neck
				{
					OFFSET 0.000000 0.000000 0.000000
					CHANNELS 3 Zrotation Yrotation Xrotation
					JOINT Neck1
					{
						OFFSET -0.054170 1.746240 0.172020
						CHANNELS 3 Zrotation Yrotation Xrotation
						JOINT Head
						{
							OFFSET 0.104070 1.761360 -0.123970
							CHANNELS 3 Zrotation Yrotation Xrotation
							End Site
							{
								OFFSET 0.000000 0.000000 0.000000
							}
						}
					}
				}
				JOINT LeftShoulder
				{
					OFFSET 0.000000 0.000000 0.000000
					CHANNELS 3 Zrotation Yrotation Xrotation
					JOINT LeftArm
					{
						OFFSET 3.362410 1.200890 -0.311210
						CHANNELS 3 Zrotation Yrotation Xrotation
						JOINT LeftForeArm
						{
							OFFSET 4.983000 -0.000000 -0.000000
							CHANNELS 3 Zrotation Yrotation Xrotation
							JOINT LeftHand
							{
								OFFSET 3.483560 -0.000000 -0.000000
								CHANNELS 3 Zrotation Yrotation Xrotation
								JOINT LeftFingerBase
								{
									OFFSET 0.000000 0.000000 0.000000
									CHANNELS 3 Zrotation Yrotation Xrotation
									JOINT LeftHandIndex1
									{
										OFFSET 0.715260 -0.000000 -0.000000
										CHANNELS 3 Zrotation Yrotation Xrotation
										End Site
										{
											OFFSET 0.000000 0.000000 0.000000
										}
									}
								}
								JOINT LThumb
								{
									OFFSET 0.000000 0.000000 0.000000
									CHANNELS 3 Zrotation Yrotation Xrotation
									End Site
									{
										OFFSET 0.000000 0.000000 0.000000
									}
								}
							}
						}
					}
				}
				JOINT RightShoulder
				{
					OFFSET 0.000000 0.000000 0.000000
					CHANNELS 3 Zrotation Yrotation Xrotation
					JOINT RightArm
					{
						OFFSET -3.136600 1.374050 -0.404650
						CHANNELS 3 Zrotation Yrotation Xrotation
						JOINT RightForeArm
						{
							OFFSET -5.241900 -0.000000 -0.000000
							CHANNELS 3 Zrotation Yrotation Xrotation
							JOINT RightHand
							{
								OFFSET -3.444170 -0.000000 -0.000000
								CHANNELS 3 Zrotation Yrotation Xrotation
								JOINT RightFingerBase
								{
									OFFSET 0.000000 0.000000 0.000000
									CHANNELS 3 Zrotation Yrotation Xrotation
									JOINT RightHandIndex1
									{
										OFFSET -0.622530 -0.000000 -0.000000
										CHANNELS 3 Zrotation Yrotation Xrotation
										End Site
										{
											OFFSET 0.000000 0.000000 0.000000
										}
									}
								}
								JOINT RThumb
								{
									OFFSET 0.000000 0.000000 0.000000
									CHANNELS 3 Zrotation Yrotation Xrotation
									End Site
									{
										OFFSET 0.000000 0.000000 0.000000
									}
								}
							}
						}
					}
				}
			}
		}
	}
}
MOTION
Frames: 5
Frame Time: 0.033333
-0.113108 17.233232 -0.113108 -3.107392 -10.709123 3.574858 -3.098027 20.781565 5.653294 -14.446663 -4.998453 -15.755673 -6.703606 -9.376953 -29.492755 2.226147 18.061924 37.014773 0.000000 0.000000 0.000000 0.726082 -28.050496 -17.998975 46.679547 4.168834 1.921635 -23.139803 -1.801480 34.108324 1.748990 6.117516 -21.229798 0.000000 0.000000 0.000000 -0.857892 2.504257 17.664688 1.930610 2.165909 -2.575830 3.453244 2.703895 -8.918496 -7.107387 0.854016 3.823053 5.080471 -0.218564 4.916395 0.000000 0.000000 0.000000 1.827754 15.007445 11.053797 -69.459497 -3.087621 17.089936 -6.175084 -84.692228 0.210510 3.826851 -15.375063 0.096334 3.918946 -15.357701 0.000000 0.000000 0.000000 0.000000 0.000000 0.000000 0.000000 9.597788 -18.211707 1.709436 47.714262 9.885658 4.523357 25.816965 23.055365 0.043755 0.533770 3.957063 0.021805 0.532157 3.957874 0.000000 0.000000 0.000000 0.000000 0.000000 0.000000 0.000000 
-0.120279 17.251521 0.028484 -2.903692 -10.422054 3.539729 -2.836681 20.421922 5.457359 -14.999233 -4.758401 -14.846945 -6.396293 -9.401388 -29.368167 2.009397 17.378039 35.729074 0.000000 0.000000 0.000000 0.941600 -27.274816 -18.082199 45.969930 4.680402 1.635226 -23.360808 -2.059975 35.689527 2.054762 5.548986 -21.345752 0.000000 0.000000 0.000000 -1.111023 2.429035 17.730942 2.143383 2.073195 -2.743152 3.523383 2.612900 -9.049316 -7.288864 0.886186 4.025677 5.145121 -0.212974 4.854176 0.000000 0.000000 0.000000 1.660813 14.935039 11.159922 -69.394873 -2.847481 17.559375 -7.103324 -84.220677 0.237675 3.564949 -15.355541 0.110315 3.651411 -15.340664 0.000000 0.000000 0.000000 0.000000 0.000000 0.000000 0.000000 9.999275 -18.332918 1.520328 47.213322 9.828101 4.206093 25.277256 21.863671 0.039282 0.509555 3.781448 0.019578 0.508074 3.782188 0.000000 0.000000 0.000000 0.000000 0.000000 0.000000 0.000000 
-0.125134 17.271629 0.169419 -2.715098 -10.125057 3.515539 -2.597073 20.041871 5.240913 -15.510732 -4.511164 -13.964405 -6.107056 -9.404884 -29.200417 1.809619 16.699909 34.432220 0.000000 0.000000 0.000000 1.148760 -26.453352 -18.144073 45.219973 5.148740 1.336307 -23.510198 -2.353632 37.195167 2.364142 4.945975 -21.379749 0.000000 0.000000 0.000000 -1.346623 2.345532 17.791226 2.359680 1.978674 -2.913456 3.593411 2.519687 -9.180080 -7.478530 0.919857 4.233845 5.211742 -0.207254 4.789802 0.000000 0.000000 0.000000 1.489596 14.860925 11.267006 -69.329201 -2.613052 18.011638 -8.042207 -83.735603 0.264273 3.302063 -15.326694 0.124012 3.382856 -15.314195 0.000000 0.000000 0.000000 0.000000 0.000000 0.000000 0.000000 10.412444 -18.450074 1.333818 46.691621 9.761177 3.908012 24.738353 20.727729 0.035218 0.486949 3.615811 0.017554 0.485589 3.616486 0.000000 0.000000 0.000000 0.000000 0.000000 0.000000 0.000000 
-0.127719 17.293109 0.309291 -2.541443 -9.820782 3.499046 -2.377592 19.646636 5.008850 -15.981780 -4.258856 -13.109187 -5.838320 -9.389412 -28.994254 1.627048 16.031496 33.130780 0.000000 0.000000 0.000000 1.346027 -25.594800 -18.189831 44.437521 5.565416 1.034335 -23.598794 -2.680532 38.619700 2.671237 4.318676 -21.338813 0.000000 0.000000 0.000000 -1.565109 2.254470 17.848444 2.579383 1.883009 -3.086694 3.663003 2.424884 -9.310601 -7.676388 0.955084 4.447504 5.280505 -0.201397 4.723222 0.000000 0.000000 0.000000 1.314233 14.785687 11.375025 -69.262467 -2.384431 18.445775 -8.991591 -83.236563 0.290263 3.038582 -15.288470 0.137405 3.113687 -15.278238 0.000000 0.000000 0.000000 0.000000 0.000000 0.000000 0.000000 10.836989 -18.562963 1.150132 46.148893 9.684951 3.628040 24.202900 19.646720 0.031522 0.465987 3.459789 0.015712 0.464740 3.460405 0.000000 0.000000 0.000000 0.000000 0.000000 0.000000 0.000000 
-0.128595 17.315553 0.447733 -2.382213 -9.511730 3.487289 -2.176661 19.240537 4.765920 -16.413478 -4.003520 -12.281883 -5.586952 -9.357323 -28.755550 1.461328 15.375653 31.832238 0.000000 0.000000 0.000000 1.532522 -24.706932 -18.224574 43.629334 5.924282 0.737579 -23.632253 -3.040993 39.961456 2.972324 3.674182 -21.231614 0.000000 0.000000 0.000000 -1.767208 2.156693 17.905141 2.802387 1.786781 -3.262844 3.731825 2.329023 -9.440694 -7.882426 0.991924 4.666612 5.351583 -0.195390 4.654395 0.000000 0.000000 0.000000 1.134866 14.709852 11.483961 -69.194650 -2.161719 18.860797 -9.951264 -82.723091 0.315602 2.774906 -15.240826 0.150471 2.844324 -15.232740 0.000000 0.000000 0.000000 0.000000 0.000000 0.000000 0.000000 11.272557 -18.671429 0.969432 45.585025 9.599521 3.365167 23.673247 18.619590 0.028154 0.446683 3.312983 0.014034 0.445539 3.313546 0.000000 0.000000 0.000000 0.000000 0.000000 0.000000 0.000000 
